<?xml version="1.0" standalone="no"?>
<!DOCTYPE svg PUBLIC "-//W3C//DTD SVG 20010904//EN"
 "http://www.w3.org/TR/2001/REC-SVG-20010904/DTD/svg10.dtd">
<svg version="1.0" xmlns="http://www.w3.org/2000/svg"
 width="700.000000pt" height="700.000000pt" viewBox="0 0 700.000000 700.000000"
 preserveAspectRatio="xMidYMid meet">
<metadata>
Created by potrace 1.14, written by Peter Selinger 2001-2017
</metadata>
<g transform="translate(0.000000,700.000000) scale(0.100000,-0.100000)"
fill="#000000" stroke="none">
<path d="M3188 6995 c-1 -1 -56 -6 -120 -9 -65 -4 -128 -9 -140 -11 -13 -2
-50 -6 -82 -10 -73 -7 -107 -12 -216 -30 -117 -20 -140 -25 -180 -35 -19 -5
-46 -11 -60 -14 -156 -27 -492 -152 -665 -246 -123 -66 -148 -81 -240 -143
-486 -326 -924 -861 -1184 -1445 -110 -247 -215 -588 -247 -800 -3 -20 -7 -46
-9 -57 -12 -77 -15 -94 -19 -125 -18 -138 -21 -378 -21 -1775 0 -1286 2 -1580
14 -1625 80 -328 299 -585 554 -651 70 -18 170 -19 2918 -19 1992 0 2863 3
2904 11 107 20 223 83 319 175 55 53 146 176 181 244 30 59 82 206 92 262 10
54 11 3146 0 3251 -4 42 -9 92 -11 110 -7 51 -19 131 -22 142 -1 6 -5 28 -9
50 -20 123 -32 174 -60 281 -109 402 -277 765 -515 1108 -44 64 -89 126 -99
138 -11 13 -36 43 -56 68 -215 266 -484 513 -748 687 -89 58 -312 177 -402
215 -178 73 -484 161 -640 183 -11 2 -47 8 -80 13 -33 6 -85 14 -115 18 -30 4
-66 8 -80 10 -14 1 -59 6 -100 9 -41 4 -88 9 -105 11 -34 5 -751 14 -757 9z
m617 -708 c11 -3 47 -8 80 -11 52 -6 154 -23 250 -41 17 -3 66 -15 110 -26
615 -151 1172 -512 1535 -994 67 -89 182 -265 201 -308 5 -12 20 -40 32 -62
102 -180 221 -546 252 -775 2 -13 7 -47 11 -75 3 -27 9 -59 12 -70 3 -11 8
-639 9 -1396 4 -1538 9 -1439 -67 -1595 -43 -90 -121 -177 -186 -210 -38 -19
-83 -19 -2544 -19 -2437 0 -2506 1 -2543 19 -85 42 -167 150 -224 292 l-28 69
0 1370 c0 754 3 1406 7 1450 6 68 27 203 43 283 3 12 7 34 10 50 12 61 67 243
100 331 35 94 129 303 150 331 5 8 19 31 29 50 39 72 152 237 227 329 236 292
534 531 879 705 69 35 148 71 175 81 28 10 55 22 60 26 19 14 251 88 370 117
171 43 322 68 458 78 45 3 84 8 86 10 5 5 482 -3 506 -9z"/>
<path d="M1659 4887 c-102 -29 -181 -96 -228 -197 l-26 -55 0 -435 0 -435 27
-57 c34 -73 103 -142 176 -176 l57 -27 435 0 435 0 55 26 c82 39 135 90 172
167 l33 67 0 435 0 435 -26 55 c-38 80 -91 135 -167 172 l-67 33 -415 2 c-307
2 -427 -1 -461 -10z"/>
<path d="M4455 4886 c-101 -32 -179 -100 -224 -196 l-26 -55 0 -435 0 -435 33
-67 c38 -77 92 -130 171 -167 l56 -26 435 0 435 0 68 33 c84 42 144 108 174
194 22 62 22 72 20 483 l-2 420 -26 56 c-37 79 -90 133 -167 171 l-67 33 -420
2 c-315 1 -430 -2 -460 -11z"/>
<path d="M1754 3033 c6 -109 8 -134 21 -218 3 -16 7 -48 10 -70 11 -73 53
-228 88 -325 247 -681 896 -1116 1649 -1105 156 3 217 9 353 37 520 106 954
436 1178 895 114 233 179 500 194 791 l6 112 -1753 0 -1753 0 7 -117z"/>
</g>
</svg>
