<svg width="2088.001" height="135.005" viewBox="0 0 2088.001 135.005" xmlns="http://www.w3.org/2000/svg">
<g id="svg_M" stroke-linecap="round" fill-rule="evenodd" font-size="9pt" stroke="#000" stroke-width="0.25mm" fill="none" style="stroke:#000;stroke-width:0.25mm;fill:none">
    <path d="M 111.6 1 L 128.6 1 L 128.6 133.6 L 114.8 133.6 L 114.8 20.4 L 70 85.2 L 58.4 85.2 L 13.6 20.4 L 13.6 134 L 0 134 L 0 1 L 16.8 1 L 64.2 69.6 L 111.6 1 Z" id="0" vector-effect="non-scaling-stroke"/>
</g>
<g id="svg_A" stroke-linecap="round" fill-rule="evenodd" font-size="9pt" stroke="#000" stroke-width="0.25mm" fill="none" style="stroke:#000;stroke-width:0.25mm;fill:none">
    <path d="M 233.8 36.6 L 247.6 36.6 L 247.6 134 L 233.8 134 L 233.8 115.6 A 48.252 48.252 0 0 1 221.206 128.07 Q 210.746 135 197 135 Q 183.2 135 171.6 128.3 Q 160 121.6 153.3 110 Q 146.6 98.4 146.6 84.8 Q 146.6 71 153.3 59.4 Q 160 47.8 171.6 41.1 Q 183.2 34.4 197 34.4 A 56.086 56.086 0 0 1 206.933 35.23 Q 214.613 36.613 220.3 40.3 Q 227.819 45.175 232.129 50.664 A 31.444 31.444 0 0 1 233.8 53 L 233.8 36.6 Z M 197 121.4 Q 207 121.4 215.4 116.5 Q 223.8 111.6 228.7 103.2 Q 233.6 94.8 233.6 84.8 Q 233.6 74.8 228.7 66.3 Q 223.8 57.8 215.4 52.9 Q 207 48 197 48 Q 187 48 178.5 52.9 Q 170 57.8 165.1 66.3 Q 160.2 74.8 160.2 84.8 Q 160.2 94.8 165.1 103.2 Q 170 111.6 178.5 116.5 Q 187 121.4 197 121.4 Z" id="1" vector-effect="non-scaling-stroke"/>
</g>
<g id="svg_R" stroke-linecap="round" fill-rule="evenodd" font-size="9pt" stroke="#000" stroke-width="0.25mm" fill="none" style="stroke:#000;stroke-width:0.25mm;fill:none">
    <path d="M 281.2 69.8 L 281.2 134 L 267.6 134 L 267.6 69.8 Q 267.6 59 273.3 50.1 Q 279 41.2 288.2 36.8 L 288.6 36.6 Q 296 33.2 304.2 33.2 Q 317 33.2 327 41 L 313.4 48.8 A 23.96 23.96 0 0 0 307.219 47.015 A 21.348 21.348 0 0 0 304.2 46.8 A 22.08 22.08 0 0 0 288.213 53.389 A 27.624 27.624 0 0 0 288 53.6 A 22.913 22.913 0 0 0 282.502 62.073 A 22.638 22.638 0 0 0 281.2 69.8 Z" id="2" vector-effect="non-scaling-stroke"/>
</g>
<g id="svg_K" stroke-linecap="round" fill-rule="evenodd" font-size="9pt" stroke="#000" stroke-width="0.25mm" fill="none" style="stroke:#000;stroke-width:0.25mm;fill:none">
    <path d="M 413.4 134 L 395.2 134 L 358.8 91.4 L 358.8 134 L 345 134 L 345 0 L 358.8 0 L 358.8 63.6 L 391.6 34 L 412.2 34 L 364.4 77 L 413.4 134 Z" id="3" vector-effect="non-scaling-stroke"/>
</g>
<g id="svg_H" stroke-linecap="round" fill-rule="evenodd" font-size="9pt" stroke="#000" stroke-width="0.25mm" fill="none" style="stroke:#000;stroke-width:0.25mm;fill:none">
    <path d="M 615.2 134 L 598 85 L 551.2 85 L 534 134 L 519.4 134 L 566 1.2 L 583.2 1.2 L 629.8 134 L 615.2 134 Z M 555.6 72.2 L 593.6 72.2 L 574.6 17.8 L 555.6 72.2 Z" id="5" vector-effect="non-scaling-stroke"/>
</g>
<g id="svg_O" stroke-linecap="round" fill-rule="evenodd" font-size="9pt" stroke="#000" stroke-width="0.25mm" fill="none" style="stroke:#000;stroke-width:0.25mm;fill:none">
    <path d="M 647.8 1 L 661.4 1 L 661.4 134 L 647.8 134 L 647.8 1 Z" id="6" vector-effect="non-scaling-stroke"/>
</g>
<g id="svg_L" stroke-linecap="round" fill-rule="evenodd" font-size="9pt" stroke="#000" stroke-width="0.25mm" fill="none" style="stroke:#000;stroke-width:0.25mm;fill:none">
    <path d="M 779.8 91.4 L 693.8 91.4 Q 696.2 104.2 706.4 112.7 Q 716.6 121.2 729.8 121.2 Q 739.6 121.2 747.8 116.6 Q 756 112 761 104 L 772.8 110.8 Q 766 121.8 754.6 128.4 Q 743.2 135 729.8 135 Q 716.2 135 704.6 128.2 Q 693 121.4 686.2 109.8 Q 679.4 98.2 679.4 84.6 Q 679.4 70.8 686.2 59.3 Q 693 47.8 704.6 41 Q 716.2 34.2 729.8 34.2 Q 743.4 34.2 755 41 Q 766.6 47.8 773.4 59.3 Q 780.2 70.8 780.2 84.6 Q 780.2 86.438 779.966 89.447 A 152.099 152.099 0 0 1 779.8 91.4 Z M 693.8 78.4 L 765.8 78.4 A 25.096 25.096 0 0 0 761.381 64.216 A 31.074 31.074 0 0 0 760.6 63.1 Q 755.4 56 747.1 51.9 Q 738.8 47.8 729.8 47.8 A 38.598 38.598 0 0 0 713.388 51.525 A 44.789 44.789 0 0 0 712.6 51.9 Q 704.2 56 699 63.1 A 26.95 26.95 0 0 0 694.76 71.556 A 24.514 24.514 0 0 0 693.8 78.4 Z" id="7" vector-effect="non-scaling-stroke"/>
</g>
<g id="svg_D" stroke-linecap="round" fill-rule="evenodd" font-size="9pt" stroke="#000" stroke-width="0.25mm" fill="none" style="stroke:#000;stroke-width:0.25mm;fill:none">
    <path d="M 874.2 34.8 L 843.2 85.2 L 873.2 134 L 857 134 L 835.2 98.4 L 813.2 134 L 797.2 134 L 827 85.2 L 796.2 34.8 L 812.2 34.8 L 835.2 72.2 L 858 34.8 L 874.2 34.8 Z" id="8" vector-effect="non-scaling-stroke"/>
</g>
<g id="svg_E" stroke-linecap="round" fill-rule="evenodd" font-size="9pt" stroke="#000" stroke-width="0.25mm" fill="none" style="stroke:#000;stroke-width:0.25mm;fill:none">
    <path d="M 977.4 36.6 L 991.2 36.6 L 991.2 134 L 977.4 134 L 977.4 115.6 A 48.252 48.252 0 0 1 964.806 128.07 Q 954.346 135 940.6 135 Q 926.8 135 915.2 128.3 Q 903.6 121.6 896.9 110 Q 890.2 98.4 890.2 84.8 Q 890.2 71 896.9 59.4 Q 903.6 47.8 915.2 41.1 Q 926.8 34.4 940.6 34.4 A 56.086 56.086 0 0 1 950.533 35.23 Q 958.213 36.613 963.9 40.3 Q 971.419 45.175 975.729 50.664 A 31.444 31.444 0 0 1 977.4 53 L 977.4 36.6 Z M 940.6 121.4 Q 950.6 121.4 959 116.5 Q 967.4 111.6 972.3 103.2 Q 977.2 94.8 977.2 84.8 Q 977.2 74.8 972.3 66.3 Q 967.4 57.8 959 52.9 Q 950.6 48 940.6 48 Q 930.6 48 922.1 52.9 Q 913.6 57.8 908.7 66.3 Q 903.8 74.8 903.8 84.8 Q 903.8 94.8 908.7 103.2 Q 913.6 111.6 922.1 116.5 Q 930.6 121.4 940.6 121.4 Z" id="9" vector-effect="non-scaling-stroke"/>
</g>
<g id="svg_N" stroke-linecap="round" fill-rule="evenodd" font-size="9pt" stroke="#000" stroke-width="0.25mm" fill="none" style="stroke:#000;stroke-width:0.25mm;fill:none">
    <path d="M 1090.6 73.6 L 1090.6 134 L 1076.8 134 L 1076.8 73.6 Q 1076.8 66.6 1073.3 60.7 Q 1069.8 54.8 1063.8 51.3 Q 1057.8 47.8 1050.8 47.8 Q 1043.8 47.8 1037.8 51.3 Q 1031.8 54.8 1028.3 60.7 Q 1024.8 66.6 1024.8 73.6 L 1024.8 134 L 1011.2 134 L 1011.2 36.6 L 1024.8 36.6 L 1024.8 45.4 Q 1029.8 39.8 1036.5 36.9 Q 1043.2 34 1050.8 34 Q 1061.6 34 1070.7 39.3 Q 1079.8 44.6 1085.2 53.7 Q 1090.6 62.8 1090.6 73.6 Z" id="10" vector-effect="non-scaling-stroke"/>
</g>
<g id="svg_M" stroke-linecap="round" fill-rule="evenodd" font-size="9pt" stroke="#000" stroke-width="0.25mm" fill="none" style="stroke:#000;stroke-width:0.25mm;fill:none">
    <path d="M 1208 1.2 L 1208 134 L 1194.6 134 L 1194.6 115.4 A 52.151 52.151 0 0 1 1182.081 127.628 A 43.367 43.367 0 0 1 1157.2 135 Q 1143.4 135 1131.8 128.2 Q 1120.2 121.4 1113.4 109.7 Q 1106.6 98 1106.6 84.4 Q 1106.6 70.8 1113.4 59.1 Q 1120.2 47.4 1131.8 40.6 Q 1143.4 33.8 1157.2 33.8 A 48.032 48.032 0 0 1 1175.672 37.234 Q 1186.379 41.648 1194.097 51.733 A 56.007 56.007 0 0 1 1194.6 52.4 L 1194.6 1.2 L 1208 1.2 Z M 1194.2 84.4 Q 1194.2 74.4 1189.2 66 Q 1184.2 57.6 1175.7 52.6 Q 1167.2 47.6 1157.2 47.6 Q 1147.2 47.6 1138.8 52.6 Q 1130.4 57.6 1125.4 66 Q 1120.4 74.4 1120.4 84.4 A 35.841 35.841 0 0 0 1125.4 102.9 Q 1130.4 111.4 1138.8 116.4 Q 1147.2 121.4 1157.2 121.4 Q 1167.2 121.4 1175.7 116.4 Q 1184.2 111.4 1189.2 102.9 Q 1194.2 94.4 1194.2 84.4 Z" id="11" vector-effect="non-scaling-stroke"/>
</g>
<g id="svg_M" stroke-linecap="round" fill-rule="evenodd" font-size="9pt" stroke="#000" stroke-width="0.25mm" fill="none" style="stroke:#000;stroke-width:0.25mm;fill:none">
    <path d="M 1326.4 91.4 L 1240.4 91.4 Q 1242.8 104.2 1253 112.7 Q 1263.2 121.2 1276.4 121.2 Q 1286.2 121.2 1294.4 116.6 Q 1302.6 112 1307.6 104 L 1319.4 110.8 Q 1312.6 121.8 1301.2 128.4 Q 1289.8 135 1276.4 135 Q 1262.8 135 1251.2 128.2 Q 1239.6 121.4 1232.8 109.8 Q 1226 98.2 1226 84.6 Q 1226 70.8 1232.8 59.3 Q 1239.6 47.8 1251.2 41 Q 1262.8 34.2 1276.4 34.2 Q 1290 34.2 1301.6 41 Q 1313.2 47.8 1320 59.3 Q 1326.8 70.8 1326.8 84.6 Q 1326.8 86.438 1326.566 89.447 A 152.099 152.099 0 0 1 1326.4 91.4 Z M 1240.4 78.4 L 1312.4 78.4 A 25.096 25.096 0 0 0 1307.981 64.216 A 31.074 31.074 0 0 0 1307.2 63.1 Q 1302 56 1293.7 51.9 Q 1285.4 47.8 1276.4 47.8 A 38.598 38.598 0 0 0 1259.988 51.525 A 44.789 44.789 0 0 0 1259.2 51.9 Q 1250.8 56 1245.6 63.1 A 26.95 26.95 0 0 0 1241.36 71.556 A 24.514 24.514 0 0 0 1240.4 78.4 Z" id="12" vector-effect="non-scaling-stroke"/>
</g>
<g id="svg_M" stroke-linecap="round" fill-rule="evenodd" font-size="9pt" stroke="#000" stroke-width="0.25mm" fill="none" style="stroke:#000;stroke-width:0.25mm;fill:none">
    <path d="M 1358.4 69.8 L 1358.4 134 L 1344.8 134 L 1344.8 69.8 Q 1344.8 59 1350.5 50.1 Q 1356.2 41.2 1365.4 36.8 L 1365.8 36.6 Q 1373.2 33.2 1381.4 33.2 Q 1394.2 33.2 1404.2 41 L 1390.6 48.8 A 23.96 23.96 0 0 0 1384.419 47.015 A 21.348 21.348 0 0 0 1381.4 46.8 A 22.08 22.08 0 0 0 1365.413 53.389 A 27.624 27.624 0 0 0 1365.2 53.6 A 22.913 22.913 0 0 0 1359.702 62.073 A 22.638 22.638 0 0 0 1358.4 69.8 Z" id="13" vector-effect="non-scaling-stroke"/>
</g>
<g id="svg_M" stroke-linecap="round" fill-rule="evenodd" font-size="9pt" stroke="#000" stroke-width="0.25mm" fill="none" style="stroke:#000;stroke-width:0.25mm;fill:none">
    <path d="M 1587.8 1 L 1601.2 1 L 1601.2 134 L 1587.8 134 L 1587.8 74.4 L 1525.8 74.4 L 1525.8 134 L 1512.2 134 L 1512.2 1 L 1525.8 1 L 1525.8 60.8 L 1587.8 60.8 L 1587.8 1 Z" id="15" vector-effect="non-scaling-stroke"/>
</g>
<g id="svg_M" stroke-linecap="round" fill-rule="evenodd" font-size="9pt" stroke="#000" stroke-width="0.25mm" fill="none" style="stroke:#000;stroke-width:0.25mm;fill:none">
    <path d="M 1669.8 135 Q 1656.2 135 1644.5 128.2 Q 1632.8 121.4 1626 109.7 Q 1619.2 98 1619.2 84.4 Q 1619.2 70.6 1626 58.9 Q 1632.8 47.2 1644.5 40.3 Q 1656.2 33.4 1669.8 33.4 Q 1683.6 33.4 1695.3 40.3 Q 1707 47.2 1713.9 58.9 Q 1720.8 70.6 1720.8 84.4 Q 1720.8 98 1713.9 109.7 Q 1707 121.4 1695.3 128.2 Q 1683.6 135 1669.8 135 Z M 1669.8 121.6 Q 1680 121.6 1688.5 116.6 Q 1697 111.6 1702 103 Q 1707 94.4 1707 84.4 Q 1707 74.2 1702 65.6 Q 1697 57 1688.5 52 Q 1680 47 1669.8 47 Q 1659.8 47 1651.3 52 Q 1642.8 57 1637.8 65.6 Q 1632.8 74.2 1632.8 84.4 Q 1632.8 94.4 1637.8 103 Q 1642.8 111.6 1651.3 116.6 Q 1659.8 121.6 1669.8 121.6 Z" id="16" vector-effect="non-scaling-stroke"/>
</g>
<g id="svg_M" stroke-linecap="round" fill-rule="evenodd" font-size="9pt" stroke="#000" stroke-width="0.25mm" fill="none" style="stroke:#000;stroke-width:0.25mm;fill:none">
    <path d="M 1738.8 1 L 1752.4 1 L 1752.4 134 L 1738.8 134 L 1738.8 1 Z" id="17" vector-effect="non-scaling-stroke"/>
</g>
<g id="svg_M" stroke-linecap="round" fill-rule="evenodd" font-size="9pt" stroke="#000" stroke-width="0.25mm" fill="none" style="stroke:#000;stroke-width:0.25mm;fill:none">
    <path d="M 1871.8 1.2 L 1871.8 134 L 1858.4 134 L 1858.4 115.4 A 52.151 52.151 0 0 1 1845.881 127.628 A 43.367 43.367 0 0 1 1821 135 Q 1807.2 135 1795.6 128.2 Q 1784 121.4 1777.2 109.7 Q 1770.4 98 1770.4 84.4 Q 1770.4 70.8 1777.2 59.1 Q 1784 47.4 1795.6 40.6 Q 1807.2 33.8 1821 33.8 A 48.032 48.032 0 0 1 1839.472 37.234 Q 1850.179 41.648 1857.897 51.733 A 56.007 56.007 0 0 1 1858.4 52.4 L 1858.4 1.2 L 1871.8 1.2 Z M 1858 84.4 Q 1858 74.4 1853 66 Q 1848 57.6 1839.5 52.6 Q 1831 47.6 1821 47.6 Q 1811 47.6 1802.6 52.6 Q 1794.2 57.6 1789.2 66 Q 1784.2 74.4 1784.2 84.4 A 35.841 35.841 0 0 0 1789.2 102.9 Q 1794.2 111.4 1802.6 116.4 Q 1811 121.4 1821 121.4 Q 1831 121.4 1839.5 116.4 Q 1848 111.4 1853 102.9 Q 1858 94.4 1858 84.4 Z" id="18" vector-effect="non-scaling-stroke"/>
</g>
<g id="svg_M" stroke-linecap="round" fill-rule="evenodd" font-size="9pt" stroke="#000" stroke-width="0.25mm" fill="none" style="stroke:#000;stroke-width:0.25mm;fill:none">
    <path d="M 1990.2 91.4 L 1904.2 91.4 Q 1906.6 104.2 1916.8 112.7 Q 1927 121.2 1940.2 121.2 Q 1950 121.2 1958.2 116.6 Q 1966.4 112 1971.4 104 L 1983.2 110.8 Q 1976.4 121.8 1965 128.4 Q 1953.6 135 1940.2 135 Q 1926.6 135 1915 128.2 Q 1903.4 121.4 1896.6 109.8 Q 1889.8 98.2 1889.8 84.6 Q 1889.8 70.8 1896.6 59.3 Q 1903.4 47.8 1915 41 Q 1926.6 34.2 1940.2 34.2 Q 1953.8 34.2 1965.4 41 Q 1977 47.8 1983.8 59.3 Q 1990.6 70.8 1990.6 84.6 Q 1990.6 86.438 1990.366 89.447 A 152.099 152.099 0 0 1 1990.2 91.4 Z M 1904.2 78.4 L 1976.2 78.4 A 25.096 25.096 0 0 0 1971.781 64.216 A 31.074 31.074 0 0 0 1971 63.1 Q 1965.8 56 1957.5 51.9 Q 1949.2 47.8 1940.2 47.8 A 38.598 38.598 0 0 0 1923.788 51.525 A 44.789 44.789 0 0 0 1923 51.9 Q 1914.6 56 1909.4 63.1 A 26.95 26.95 0 0 0 1905.16 71.556 A 24.514 24.514 0 0 0 1904.2 78.4 Z" id="19" vector-effect="non-scaling-stroke"/>
</g>
<g id="svg_M" stroke-linecap="round" fill-rule="evenodd" font-size="9pt" stroke="#000" stroke-width="0.25mm" fill="none" style="stroke:#000;stroke-width:0.25mm;fill:none">
    <path d="M 2088 73.6 L 2088 134 L 2074.2 134 L 2074.2 73.6 Q 2074.2 66.6 2070.7 60.7 Q 2067.2 54.8 2061.2 51.3 Q 2055.2 47.8 2048.2 47.8 Q 2041.2 47.8 2035.2 51.3 Q 2029.2 54.8 2025.7 60.7 Q 2022.2 66.6 2022.2 73.6 L 2022.2 134 L 2008.6 134 L 2008.6 36.6 L 2022.2 36.6 L 2022.2 45.4 Q 2027.2 39.8 2033.9 36.9 Q 2040.6 34 2048.2 34 Q 2059 34 2068.1 39.3 Q 2077.2 44.6 2082.6 53.7 Q 2088 62.8 2088 73.6 Z" id="20" vector-effect="non-scaling-stroke"/>
</g>
</svg>