<svg width="50.801" height="50.801" viewBox="0 0 50.801 50.801" xmlns="http://www.w3.org/2000/svg" class="" style=""><g id="svg_16_O" stroke-linecap="round" fill-rule="evenodd" font-size="9pt" stroke="#000" stroke-width="0.25mm" fill="none" style="stroke:#000;stroke-width:0.25mm;fill:none"><path d="M 25.301 50.801 Q 18.501 50.801 12.651 47.401 Q 6.801 44.001 3.401 38.151 Q 0.001 32.301 0.001 25.501 Q 0.001 18.601 3.401 12.751 Q 6.801 6.901 12.651 3.451 Q 18.501 0.001 25.301 0.001 Q 32.201 0.001 38.051 3.451 Q 43.901 6.901 47.351 12.751 Q 50.801 18.601 50.801 25.501 Q 50.801 32.301 47.351 38.151 Q 43.901 44.001 38.051 47.401 Q 32.201 50.801 25.301 50.801 Z M 25.301 44.101 Q 30.401 44.101 34.651 41.601 Q 38.901 39.101 41.401 34.801 Q 43.901 30.501 43.901 25.501 Q 43.901 20.401 41.401 16.101 Q 38.901 11.801 34.651 9.301 Q 30.401 6.801 25.301 6.801 Q 20.301 6.801 16.051 9.301 Q 11.801 11.801 9.301 16.101 Q 6.801 20.401 6.801 25.501 Q 6.801 30.501 9.301 34.801 Q 11.801 39.101 16.051 41.601 A 17.921 17.921 0 0 0 25.301 44.101 Z" id="svg_16_O_0" vector-effect="non-scaling-stroke" class="ewVjpGVH_0"></path></g><style data-made-with="vivus-instant">.ewVjpGVH_0{stroke-dasharray:277 279;stroke-dashoffset:278;}.start-title .ewVjpGVH_0{animation:ewVjpGVH_draw 3000ms linear 0ms forwards;}@keyframes ewVjpGVH_draw{100%{stroke-dashoffset:0;}}@keyframes ewVjpGVH_fade{0%{stroke-opacity:1;}94.44444444444444%{stroke-opacity:1;}100%{stroke-opacity:0;}}</style></svg>