<svg width="29.701" height="50.401" viewBox="0 0 29.701 50.401" xmlns="http://www.w3.org/2000/svg" class="" style=""><g id="svg_3_R" stroke-linecap="round" fill-rule="evenodd" font-size="9pt" stroke="#000" stroke-width="0.25mm" fill="none" style="stroke:#000;stroke-width:0.25mm;fill:none"><path d="M 6.801 18.301 L 6.801 50.401 L 0.001 50.401 L 0.001 18.301 Q 0.001 12.901 2.851 8.451 Q 5.701 4.001 10.301 1.801 L 10.501 1.701 Q 14.201 0.001 18.301 0.001 Q 24.701 0.001 29.701 3.901 L 22.901 7.801 A 11.98 11.98 0 0 0 19.81 6.909 A 10.674 10.674 0 0 0 18.301 6.801 A 11.04 11.04 0 0 0 10.307 10.096 A 13.817 13.817 0 0 0 10.201 10.201 A 11.457 11.457 0 0 0 7.452 14.437 A 11.319 11.319 0 0 0 6.801 18.301 Z" id="svg_3_R_0" vector-effect="non-scaling-stroke" class="RPbnzLpP_0"></path></g><style data-made-with="vivus-instant">.RPbnzLpP_0{stroke-dasharray:143 145;stroke-dashoffset:144;}.start-title .RPbnzLpP_0{animation:RPbnzLpP_draw 3000ms linear 0ms forwards;}@keyframes RPbnzLpP_draw{100%{stroke-dashoffset:0;}}@keyframes RPbnzLpP_fade{0%{stroke-opacity:1;}94.44444444444444%{stroke-opacity:1;}100%{stroke-opacity:0;}}</style></svg>