<svg width="50.501" height="50.302" viewBox="0 0 50.501 50.302" xmlns="http://www.w3.org/2000/svg"><g id="svg_10_A" stroke-linecap="round" fill-rule="evenodd" font-size="9pt" stroke="#000" stroke-width="0.25mm" fill="none" style="stroke:#000;stroke-width:0.25mm;fill:none"><path d="M 43.601 1.101 L 50.501 1.101 L 50.501 49.801 L 43.601 49.801 L 43.601 40.601 Q 36.83 50.12 25.629 50.298 A 26.966 26.966 0 0 1 25.201 50.301 Q 18.301 50.301 12.501 46.951 Q 6.701 43.601 3.351 37.801 Q 0.001 32.001 0.001 25.201 Q 0.001 18.301 3.351 12.501 Q 6.701 6.701 12.501 3.351 Q 18.301 0.001 25.201 0.001 A 28.043 28.043 0 0 1 30.167 0.416 Q 32.987 0.923 35.27 2.053 A 15.696 15.696 0 0 1 36.851 2.951 A 29.473 29.473 0 0 1 40.047 5.324 Q 42.26 7.229 43.601 9.301 L 43.601 1.101 Z M 25.201 43.501 Q 30.201 43.501 34.401 41.051 Q 38.601 38.601 41.051 34.401 Q 43.501 30.201 43.501 25.201 Q 43.501 20.201 41.051 15.951 Q 38.601 11.701 34.401 9.251 Q 30.201 6.801 25.201 6.801 Q 20.201 6.801 15.951 9.251 Q 11.701 11.701 9.251 15.951 Q 6.801 20.201 6.801 25.201 Q 6.801 30.201 9.251 34.401 Q 11.701 38.601 15.951 41.051 Q 20.201 43.501 25.201 43.501 Z" id="svg_10_A_0" vector-effect="non-scaling-stroke"/></g></svg>