<svg width="50.7" height="66.903" viewBox="0 0 50.7 66.903" xmlns="http://www.w3.org/2000/svg"><g id="svg_18_D" stroke-linecap="round" fill-rule="evenodd" font-size="9pt" stroke="#000" stroke-width="0.25mm" fill="none" style="stroke:#000;stroke-width:0.25mm;fill:none"><path d="M 50.7 0 L 50.7 66.4 L 44 66.4 L 44 57.1 Q 36.7 66.9 25.3 66.9 Q 18.4 66.9 12.6 63.5 Q 6.8 60.1 3.4 54.25 Q 0 48.4 0 41.6 Q 0 34.8 3.4 28.95 Q 6.8 23.1 12.6 19.7 Q 18.4 16.3 25.3 16.3 A 24.016 24.016 0 0 1 34.536 18.017 Q 39.89 20.224 43.749 25.266 A 28.001 28.001 0 0 1 44 25.6 L 44 0 L 50.7 0 Z M 43.8 41.6 Q 43.8 36.6 41.3 32.4 Q 38.8 28.2 34.55 25.7 Q 30.3 23.2 25.3 23.2 Q 20.3 23.2 16.1 25.7 Q 11.9 28.2 9.4 32.4 Q 6.9 36.6 6.9 41.6 A 17.921 17.921 0 0 0 9.4 50.85 Q 11.9 55.1 16.1 57.6 Q 20.3 60.1 25.3 60.1 Q 30.3 60.1 34.55 57.6 Q 38.8 55.1 41.3 50.85 Q 43.8 46.6 43.8 41.6 Z" id="svg_18_D_0" vector-effect="non-scaling-stroke"/></g></svg>