<svg width="50.402" height="50.401" viewBox="0 0 50.402 50.401" xmlns="http://www.w3.org/2000/svg"><g id="svg_19_E" stroke-linecap="round" fill-rule="evenodd" font-size="9pt" stroke="#000" stroke-width="0.25mm" fill="none" style="stroke:#000;stroke-width:0.25mm;fill:none"><path d="M 50.201 28.6 L 7.201 28.6 Q 8.401 35 13.501 39.25 Q 18.601 43.5 25.201 43.5 Q 30.101 43.5 34.201 41.2 Q 38.301 38.9 40.801 34.9 L 46.701 38.3 Q 43.301 43.8 37.601 47.1 Q 31.901 50.4 25.201 50.4 Q 18.401 50.4 12.601 47 Q 6.801 43.6 3.401 37.8 Q 0.001 32 0.001 25.2 Q 0.001 18.3 3.401 12.55 Q 6.801 6.8 12.601 3.4 Q 18.401 0 25.201 0 Q 32.001 0 37.801 3.4 Q 43.601 6.8 47.001 12.55 Q 50.401 18.3 50.401 25.2 Q 50.401 26.4 50.201 28.6 Z M 7.201 22.1 L 43.201 22.1 A 12.548 12.548 0 0 0 40.991 15.009 A 15.537 15.537 0 0 0 40.601 14.45 Q 38.001 10.9 33.851 8.85 Q 29.701 6.8 25.201 6.8 A 19.299 19.299 0 0 0 16.995 8.663 A 22.394 22.394 0 0 0 16.601 8.85 Q 12.401 10.9 9.801 14.45 A 13.475 13.475 0 0 0 7.681 18.679 A 12.257 12.257 0 0 0 7.201 22.1 Z" id="svg_19_E_0" vector-effect="non-scaling-stroke"/></g></svg>