<svg width="39.701" height="50.001" viewBox="0 0 39.701 50.001" xmlns="http://www.w3.org/2000/svg"><g id="svg_20_N" stroke-linecap="round" fill-rule="evenodd" font-size="9pt" stroke="#000" stroke-width="0.25mm" fill="none" style="stroke:#000;stroke-width:0.25mm;fill:none"><path d="M 39.7 19.801 L 39.7 50.001 L 32.8 50.001 L 32.8 19.801 Q 32.8 16.301 31.05 13.351 Q 29.3 10.401 26.3 8.651 Q 23.3 6.901 19.8 6.901 Q 16.3 6.901 13.3 8.651 Q 10.3 10.401 8.55 13.351 Q 6.8 16.301 6.8 19.801 L 6.8 50.001 L 0 50.001 L 0 1.301 L 6.8 1.301 L 6.8 5.701 Q 9.3 2.901 12.65 1.451 Q 16 0.001 19.8 0.001 Q 25.2 0.001 29.75 2.651 Q 34.3 5.301 37 9.851 Q 39.7 14.401 39.7 19.801 Z" id="svg_20_N_0" vector-effect="non-scaling-stroke"/></g></svg>