<svg width="35.1" height="51.101" viewBox="0 0 35.1 51.101" xmlns="http://www.w3.org/2000/svg"><g id="svg_9_S" stroke-linecap="round" fill-rule="evenodd" font-size="9pt" stroke="#000" stroke-width="0.25mm" fill="none" style="stroke:#000;stroke-width:0.25mm;fill:none"><path d="M 17.6 0 L 17.7 0 A 24.426 24.426 0 0 1 21.454 0.272 Q 23.442 0.581 25.077 1.245 A 12.418 12.418 0 0 1 26.8 2.1 A 17.841 17.841 0 0 1 29.984 4.505 A 14.405 14.405 0 0 1 32.2 7.2 A 18.227 18.227 0 0 1 34.504 12.969 A 17.233 17.233 0 0 1 34.7 14.1 L 27.7 14.1 A 6.248 6.248 0 0 0 27.432 13.005 Q 27.253 12.472 26.973 11.884 A 15.193 15.193 0 0 0 26.4 10.8 A 8.206 8.206 0 0 0 22.163 7.57 Q 20.243 6.882 17.7 6.8 A 29.478 29.478 0 0 0 14.983 6.916 Q 10.931 7.292 9.4 8.9 Q 7.4 11 7 13.8 Q 6.91 14.162 6.901 14.768 A 9.202 9.202 0 0 0 6.9 14.9 A 6.238 6.238 0 0 0 8.47 19.051 A 7.984 7.984 0 0 0 8.6 19.2 Q 10 20.9 12.2 21.45 Q 14.101 21.926 17.421 22.214 A 79.248 79.248 0 0 0 18.5 22.3 Q 21.8 22.5 24.15 22.9 Q 26.5 23.3 28.6 24.4 A 11.665 11.665 0 0 1 34.766 32.746 A 17.947 17.947 0 0 1 35.1 36.3 Q 35.1 39.2 33.95 41.85 Q 32.8 44.5 30.7 46.5 Q 26.026 51.074 17.892 51.1 A 29.098 29.098 0 0 1 17.8 51.1 A 23.188 23.188 0 0 1 12.008 50.414 A 16.887 16.887 0 0 1 4.8 46.6 Q 0.9 42.8 0 37.2 L 7 37.2 A 11.821 11.821 0 0 0 7.799 39.277 Q 8.437 40.543 9.344 41.449 A 7.351 7.351 0 0 0 9.5 41.6 Q 11.804 43.739 15.867 44.119 A 19.741 19.741 0 0 0 17.7 44.2 Q 21.656 44.2 24.337 42.641 A 9.455 9.455 0 0 0 25.3 42 A 7.626 7.626 0 0 0 27.204 39.956 A 6.789 6.789 0 0 0 28.2 36.3 A 13.437 13.437 0 0 0 28.097 34.579 Q 27.839 32.587 26.933 31.442 A 4.104 4.104 0 0 0 26.9 31.4 Q 25.6 29.8 23.55 29.35 A 17.752 17.752 0 0 0 22.117 29.103 Q 20.62 28.902 18.582 28.823 A 62.005 62.005 0 0 0 17.9 28.8 Q 12.7 28.5 9.4 27.65 A 11.131 11.131 0 0 1 5.282 25.573 A 15.006 15.006 0 0 1 3.4 23.8 A 15.079 15.079 0 0 1 0.825 19.218 A 13.563 13.563 0 0 1 0.1 14.8 Q 0.1 13.82 0.167 13.24 A 4.811 4.811 0 0 1 0.2 13 A 16.198 16.198 0 0 1 1.425 8.448 A 12.651 12.651 0 0 1 5.5 3.35 Q 9.367 0.471 15.524 0.067 A 31.651 31.651 0 0 1 17.6 0 Z" id="svg_9_S_0" vector-effect="non-scaling-stroke"/></g></svg>